PathFileType	4	(X/Y/Z)	C:\Users\Basilio\Documents\Thesis Gigler\squatting_fais\c3dfiles\041\SJ_pre2\markers_experimental.trc
DataRate	CameraRate	NumFrames	NumMarkers	Units	OrigDataRate	OrigDataStartFrame	OrigNumFrames
200.000000	200.000000	4	62	mm	200.000000	1042	1390
Frame#	Time	FHD			LBHD			RBHD			C7			T10			CLAV			LSHO			LUUPA			LMUPA			LDUPA			LLEP			LMEP			LRAD			LUL			LRFIN			RSHO			RUPA1			RMUPA			RDUPA			RLEP			RMEP			RRAD			RUL			RUFIN			LASI			RASI			USACR			LSACR			RSACR			LTHI1			LTHI2			LTHI3			LTHI4			LLFC			LMFC			LTIB1			LTIB2			LTIB3			LTIB4			LLMAL			LMMAL			LHEE			LMT1			LMT2			LMT5			RTHI			RTHI2			RTHI3			RTHI4			RLFC			RMFC			RTIB1			RTIB2			RTIB3			RTIB4			RLMAL			RMMAL			RHEE			RMT1			RMT2			RMT5			*61			
		X1	Y1	Z1	X2	Y2	Z2	X3	Y3	Z3	X4	Y4	Z4	X5	Y5	Z5	X6	Y6	Z6	X7	Y7	Z7	X8	Y8	Z8	X9	Y9	Z9	X10	Y10	Z10	X11	Y11	Z11	X12	Y12	Z12	X13	Y13	Z13	X14	Y14	Z14	X15	Y15	Z15	X16	Y16	Z16	X17	Y17	Z17	X18	Y18	Z18	X19	Y19	Z19	X20	Y20	Z20	X21	Y21	Z21	X22	Y22	Z22	X23	Y23	Z23	X24	Y24	Z24	X25	Y25	Z25	X26	Y26	Z26	X27	Y27	Z27	X28	Y28	Z28	X29	Y29	Z29	X30	Y30	Z30	X31	Y31	Z31	X32	Y32	Z32	X33	Y33	Z33	X34	Y34	Z34	X35	Y35	Z35	X36	Y36	Z36	X37	Y37	Z37	X38	Y38	Z38	X39	Y39	Z39	X40	Y40	Z40	X41	Y41	Z41	X42	Y42	Z42	X43	Y43	Z43	X44	Y44	Z44	X45	Y45	Z45	X46	Y46	Z46	X47	Y47	Z47	X48	Y48	Z48	X49	Y49	Z49	X50	Y50	Z50	X51	Y51	Z51	X52	Y52	Z52	X53	Y53	Z53	X54	Y54	Z54	X55	Y55	Z55	X56	Y56	Z56	X57	Y57	Z57	X58	Y58	Z58	X59	Y59	Z59	X60	Y60	Z60	X61	Y61	Z61	X62	Y62	Z62	

1043	5.21	-154.9337615966797	1717.038696289063	-904.600769042969	-314.4546508789063	1626.966796875	-994.4707641601565	-304.4760437011719	1625.895874023438	-841.507263183594	-349.3712768554688	1494.78125	-933.2242431640627	-394.6006469726564	1175.156494140625	-938.3905029296877	-179.6403198242188	1433.164184570313	-931.6871337890627	-242.3919372558594	1492.773803710938	-1104.79931640625	-297.7946777343751	1366.081665039063	-1250.5908203125	-289.5502929687501	1317.366821289063	-1246.642944335938	-327.9472961425782	1320.10400390625	-1293.890625	-349.3023986816407	1277.84228515625	-1320.244750976563	-419.2202758789064	1253.164916992188	-1264.248168945313	-315.0235290527344	1075.404296875	-1148.116821289063	-306.4407653808594	1028.81787109375	-1207.438232421875	-268.0608520507813	1048.903076171875	-1111.736694335938	-232.8482208251954	1490.96044921875	-761.4680175781251	-302.7160339355469	1353.80517578125	-599.8060913085939	-270.5408325195313	1315.55078125	-611.1295776367189	-299.4536132812501	1290.044067382813	-567.5351562500001	-305.7506103515626	1242.40380859375	-551.6893310546876	-386.1767883300782	1234.445068359375	-599.7875366210939	-326.4861755371094	1054.197875976563	-730.5776977539064	-285.7283630371094	1037.529663085938	-777.2127075195315	-300.9638977050782	1006.807006835938	-675.7227783203126	-233.5647735595704	986.0938720703127	-1047.452392578125	-247.3457489013672	972.5488281250002	-835.222106933594	-416.1666564941407	1062.051635742188	-945.7056274414065	-432.7983398437501	1037.902587890625	-974.056335449219	-440.0938110351564	1037.647216796875	-919.6474609375002	-342.9357910156251	784.7183837890627	-1157.4208984375	-291.4058837890626	718.8752441406251	-1172.417724609375	-246.5713958740235	729.7817993164064	-1162.546875	-307.5003662109376	658.2393798828126	-1170.26904296875	-258.9854125976563	493.7478027343751	-1194.80322265625	-234.3745269775391	452.115692138672	-1088.382446289063	-271.7954101562501	295.9319458007813	-1173.655029296875	-335.2660827636719	278.5883789062501	-1234.878540039063	-298.4090881347657	261.3675842285157	-1214.948364257813	-321.5166015625001	182.7393188476563	-1192.711303710938	-407.1870117187501	105.7238540649414	-1241.368530273438	-369.7863769531251	109.9764099121094	-1158.08447265625	-470.6903686523439	59.50756454467775	-1206.799072265625	-254.7394104003907	60.05342483520509	-1174.2294921875	-248.282455444336	55.34385681152345	-1218.023193359375	-286.2940063476563	29.222318649292	-1274.873779296875	-332.1574707031251	717.5856933593751	-739.1123046875001	-282.7803344726563	674.9047851562501	-726.7458496093751	-251.0459899902344	683.7799072265626	-730.1080322265626	-290.1901245117188	590.1536865234376	-735.1806030273439	-266.2322082519532	476.927703857422	-718.7701416015626	-238.2910156250001	447.2255859375001	-828.9089965820315	-265.9859619140626	307.9842529296876	-713.9487304687501	-366.8975219726563	256.4020080566407	-697.1591796875001	-322.8637695312501	242.7146148681641	-697.8441162109376	-314.4272460937501	189.0597686767578	-724.4446411132814	-404.3922119140626	91.67185211181642	-702.3718872070314	-373.4920654296876	102.6294097900391	-783.0661621093752	-464.4042358398439	49.68665695190431	-752.4245605468751	-245.262191772461	52.50477981567384	-751.4067382812501	-245.7940673828126	53.70036697387697	-698.9807128906251	-292.0154724121094	32.79382324218751	-650.0442504882814	-4217.051757812501	853.1618652343752	-3944.757324218751	
1044	5.215	-154.5363006591797	1707.68359375	-905.0946044921877	-314.0761413574219	1617.77099609375	-995.2407226562502	-304.1500549316407	1616.510375976563	-842.1479492187502	-349.3423461914063	1485.809448242188	-934.2099609375002	-395.2299804687501	1165.803344726563	-938.9112548828127	-178.4599304199219	1421.7412109375	-932.0451660156252	-241.6336517333985	1481.813720703125	-1106.155639648438	-297.8639526367188	1353.991821289063	-1250.753051757813	-290.5920410156251	1305.375732421875	-1246.356567382813	-328.3607788085938	1308.271118164063	-1293.905639648438	-350.0212402343751	1266.461791992188	-1320.421997070313	-419.9329528808595	1242.037231445313	-1264.169799804688	-315.8584289550782	1064.318359375	-1148.420532226563	-306.9846191406251	1017.813232421875	-1207.820068359375	-268.9450073242188	1037.690185546875	-1112.060302734375	-232.9753112792969	1480.3017578125	-761.8643798828126	-303.8907775878907	1342.597534179688	-600.5377197265626	-272.1527099609376	1304.0859375	-611.9830322265626	-300.6804199218751	1279.136962890625	-568.2415771484376	-307.3951416015626	1231.263793945313	-552.3375854492189	-387.6563415527345	1223.522216796875	-600.6497802734376	-327.2647705078126	1043.396606445313	-730.6970214843751	-287.7486572265626	1026.644897460938	-777.568298339844	-302.1368408203126	995.9997558593752	-676.1348266601564	-235.0121002197266	974.757751464844	-1047.794189453125	-248.9559173583985	961.6177368164065	-835.2741699218752	-417.1961059570314	1053.740478515625	-946.8076782226565	-433.5068969726564	1029.119750976563	-975.0166015625002	-441.092010498047	1029.04345703125	-920.424255371094	-343.6747131347657	775.8528442382815	-1158.317016601563	-292.3511352539063	710.3809204101564	-1173.238647460938	-247.2217559814454	721.2005615234376	-1164.030639648438	-308.2536621093751	649.5949707031251	-1171.060791015625	-258.6226196289063	484.4949340820314	-1195.980590820313	-233.8111877441407	444.0474853515626	-1089.352294921875	-273.3607788085938	287.3061523437501	-1173.231323242188	-336.4431152343751	269.9776000976563	-1235.122314453125	-299.8375854492188	252.7380676269532	-1214.415649414063	-323.9190673828126	174.817855834961	-1193.281127929688	-409.9983520507814	99.2477951049805	-1240.497924804688	-373.5426025390626	103.9120407104492	-1156.7138671875	-472.8671875000001	53.61611557006837	-1206.66455078125	-256.5032043457032	60.16054916381837	-1173.65673828125	-250.1664581298829	55.5587615966797	-1217.89306640625	-287.0133666992188	29.53038787841798	-1275.469970703125	-333.1107482910157	709.0236206054689	-740.0032958984376	-283.8876037597657	666.5579833984376	-726.3816528320314	-251.8743133544922	675.7114257812501	-728.6096191406251	-289.5244445800782	581.8091430664064	-735.6125488281251	-264.9348449707032	468.4679260253907	-718.1979370117189	-238.3793945312501	439.382537841797	-827.6812744140627	-266.7334594726563	299.7453002929688	-715.0603027343751	-368.2001647949219	249.4245147705079	-698.1582641601564	-324.5760498046876	235.189193725586	-699.6599731445314	-316.9562988281251	181.8749084472657	-726.0976562500001	-406.6782226562501	87.46324920654298	-703.4739379882814	-376.3598022460938	97.09118652343753	-785.0991821289065	-467.4703063964845	47.52573394775391	-750.8659667968751	-247.5699157714844	52.57798767089845	-752.4191894531251	-248.3700866699219	53.8810501098633	-699.8738403320314	-292.9435424804688	33.12345504760743	-650.7427978515626	-4216.215820312501	853.1771240234377	-3945.098876953126	
1045	5.22	-153.8164672851563	1698.6396484375	-905.6881103515627	-313.5210876464844	1608.832153320313	-995.9141845703127	-303.7991027832032	1607.4296875	-842.863952636719	-349.1420288085938	1477.4072265625	-935.0650024414065	-396.0452270507814	1158.356201171875	-939.7254638671877	-177.4557495117188	1411.14208984375	-932.6329345703127	-240.9577331542969	1471.506713867188	-1107.570434570313	-298.1677246093751	1342.84912109375	-1251.172485351563	-291.3908691406251	1294.072631835938	-1246.228759765625	-329.0494384765626	1297.068237304688	-1294.007446289063	-350.9516906738282	1255.270263671875	-1320.3896484375	-420.692840576172	1231.38623046875	-1264.029663085938	-316.7328491210938	1053.477783203125	-1148.78857421875	-307.5099792480469	1007.178894042969	-1208.319213867188	-270.0513916015626	1026.994140625	-1112.51953125	-233.3009033203126	1469.867065429688	-762.2169189453126	-305.2878417968751	1331.683471679688	-601.1430664062501	-273.7566223144532	1293.061889648438	-612.6727294921876	-302.5260009765626	1268.25439453125	-568.9473876953126	-308.9234924316407	1220.81982421875	-553.2963867187501	-389.221405029297	1212.959350585938	-601.6335449218751	-328.6357421875001	1032.778076171875	-730.9363403320314	-289.2967224121094	1016.053771972656	-777.8491210937502	-303.6531066894532	985.2483520507815	-676.2586059570314	-236.9002838134766	963.8475341796877	-1047.867797851563	-251.830551147461	951.060485839844	-836.001403808594	-418.4733886718751	1046.581420898438	-947.8785400390627	-434.9240722656251	1021.723693847656	-975.8669433593752	-442.4453125000001	1021.962463378906	-921.3504028320315	-344.5493164062501	767.4266967773439	-1157.603393554688	-293.6618652343751	701.7338867187501	-1173.668701171875	-248.3369140625001	712.7593383789064	-1165.7490234375	-309.1759643554688	640.7780761718751	-1170.929809570313	-258.2246704101563	475.5165100097657	-1196.675537109375	-234.6510009765626	436.255096435547	-1090.239624023438	-274.7404785156251	279.5719909667969	-1172.245849609375	-338.6767578125001	262.3937072753907	-1234.103271484375	-301.9280700683594	244.7444305419922	-1213.671020507813	-327.3080749511719	167.9837341308594	-1192.171264648438	-412.1766052246095	95.18261718750001	-1239.406494140625	-376.5677490234376	100.7654113769532	-1154.256591796875	-476.0650024414064	51.39807128906251	-1208.301513671875	-258.8233642578126	60.29578399658205	-1172.881469726563	-252.6091918945313	55.66762924194337	-1216.884033203125	-288.6052551269532	29.56677627563477	-1275.15478515625	-333.4736022949219	700.9875488281251	-741.0613403320314	-284.3225097656251	658.8587036132814	-726.4454956054689	-252.0725097656251	668.3851318359376	-727.4357299804689	-288.4691162109376	574.2160644531251	-739.0372314453126	-263.3640136718751	461.4313964843751	-717.8265991210939	-239.0762481689454	432.7473754882814	-824.9841308593752	-264.2175903320313	296.7571411132813	-715.4956054687501	-367.1152343750001	247.4200134277344	-698.9327392578126	-323.4613952636719	233.2662200927735	-700.8456420898439	-317.2298278808594	179.8345489501953	-727.3314208984376	-409.4616088867189	88.07864379882814	-703.6534423828126	-379.4447937011719	97.28446960449222	-785.4202880859377	-469.6021118164064	46.74302673339844	-750.4988403320314	-250.566390991211	53.02591705322267	-753.1213378906251	-250.8704071044922	54.73030090332033	-700.8902587890626	-294.2603454589844	33.71187973022462	-651.1848144531251	-4216.541503906251	853.1128540039065	-3944.724609375001	
1046	5.225000000000001	-153.4514617919922	1689.908447265625	-906.1234130859377	-312.9571228027344	1600.36083984375	-996.5970458984377	-303.2375183105469	1599.02197265625	-843.735534667969	-348.4604797363282	1469.662109375	-935.8218994140627	-396.8783569335939	1151.805541992188	-941.235290527344	-176.5617828369141	1401.41845703125	-932.9064941406252	-240.0232696533204	1461.581176757813	-1108.869384765625	-298.9775390625001	1332.295654296875	-1251.39013671875	-292.4844970703126	1283.345458984375	-1246.118774414063	-329.7967529296876	1286.411499023438	-1294.086059570313	-351.9059448242188	1244.658081054688	-1320.305419921875	-421.8237609863282	1220.989135742188	-1263.862670898438	-317.2629089355469	1042.992065429688	-1149.713745117188	-307.9764709472657	996.827087402344	-1209.188720703125	-271.1142578125001	1016.592468261719	-1113.179321289063	-233.5883941650391	1460.122680664063	-762.6334228515626	-307.0038146972657	1321.332885742188	-601.9257812500001	-275.0867309570313	1282.693115234375	-613.9701538085939	-303.8133850097657	1257.819213867188	-569.8832397460939	-310.5054626464844	1210.1337890625	-554.3643798828126	-390.7131958007814	1202.696899414063	-602.6526489257814	-330.5046997070313	1022.630126953125	-731.1761474609376	-290.9558410644532	1005.848815917969	-777.5446777343752	-304.8619384765626	975.0208740234377	-676.3400268554689	-239.3641204833985	953.2088012695315	-1048.284912109375	-254.8868408203126	940.732849121094	-836.530212402344	-420.1473693847657	1040.99072265625	-948.7354125976565	-436.6553344726564	1015.804138183594	-977.0101318359377	-444.1144409179689	1016.6455078125	-922.176208496094	-345.5413208007813	759.5191040039064	-1156.743286132813	-295.5208129882813	693.5718994140626	-1173.562255859375	-249.3954620361329	705.0292968750001	-1167.831176757813	-310.1817321777344	632.5734252929689	-1168.426879882813	-258.0283813476563	468.4519042968751	-1197.03857421875	-236.1547393798829	429.9197692871095	-1092.159912109375	-273.2001342773438	277.0447387695313	-1170.641235351563	-337.9049682617188	259.1551513671876	-1232.643432617188	-301.3086853027344	243.1370086669922	-1211.630126953125	-329.1700744628907	166.6224517822266	-1189.38916015625	-415.3650512695314	96.58694458007815	-1238.953125	-379.6793823242188	101.0065536499024	-1153.769653320313	-478.4046630859376	50.62413787841798	-1208.765380859375	-262.0809326171876	59.78182601928712	-1172.18408203125	-254.9217529296876	56.33400344848634	-1215.905029296875	-290.3031921386719	30.12105369567872	-1274.9833984375	-333.0780639648438	694.4378051757814	-742.8150634765626	-283.1685485839844	652.9619750976564	-726.8933105468751	-250.9153442382813	662.8942260742189	-726.7199707031251	-284.9542541503907	568.6693115234376	-743.1822509765626	-258.3711853027344	458.2337951660157	-718.1325683593751	-234.2276000976563	429.9875793457032	-823.5566406250002	-257.9510192871094	296.1241149902344	-714.1688842773439	-362.9021911621094	250.1896057128907	-698.0736694335939	-319.8829040527344	235.0742950439454	-699.4703979492189	-314.5466613769532	181.3222808837891	-725.3872070312501	-409.342742919922	91.63899993896486	-704.1220092773439	-378.7297058105469	101.1239242553711	-784.531921386719	-469.0889587402345	47.53293991088868	-750.6964721679689	-250.0417480468751	53.04456710815431	-752.4204101562501	-250.3730621337891	55.04885101318361	-700.3154907226564	-293.8276062011719	33.46944808959962	-650.8753051757814	-4216.861328125001	853.159118652344	-3944.831298828126	
